<svg width="119" height="114" viewBox="0 0 119 114" fill="none" xmlns="http://www.w3.org/2000/svg">
<path d="M56.074 0.32201C56.3623 0.186603 56.6802 0.100112 56.9976 0.0742051C69.6233 -0.956181 70.4826 8.92628 75.4824 18.3888C77.3894 21.9984 79.0826 25.962 80.828 29.731C81.2255 30.5893 82.0241 31.1869 82.9607 31.3181C91.931 32.5749 110.659 34.4831 115.763 39.2651C125.37 48.2705 103.223 65.5081 95.5158 72.2694C94.7664 72.9268 94.4573 73.9312 94.6433 74.9106C95.4896 79.3669 96.0503 83.9682 96.8596 88.3903C104.109 127.974 80.4624 110.757 60.8164 100.019C60.162 99.6696 59.2013 98.9897 58.6258 99.1067C47.9651 101.401 37.8604 112.474 26.8056 112.243C22.3213 112.15 17.1502 105.823 17.8143 101.155C19.1115 92.0427 21.0327 82.8093 22.7585 73.6894C22.9335 72.7645 22.6435 71.8161 21.9688 71.1597C9.0076 58.5488 -18.6057 36.4316 19.0173 32.7049C24.4421 32.1677 30.2303 31.3308 35.7503 30.6655C36.7051 30.5505 37.5408 29.9686 37.9671 29.1065C42.1909 20.5651 46.7627 10.337 52.3092 2.72167C52.955 1.83652 54.8474 0.898156 56.074 0.32201Z" fill="#F0E8DE"/>
<path d="M35.1316 57.4675C35.4872 56.7861 36.3277 56.5913 37.0455 56.8664C37.301 56.9643 37.5367 57.1145 37.7003 57.3338C40.4184 60.9763 38.3473 71.2957 49.71 76.9396C54.6528 79.3502 60.3568 79.6728 65.5363 77.8349C80.3831 72.559 76.9213 59.6849 80.9067 57.1987C81.3475 56.9237 81.9038 57.0532 82.3272 57.3542C82.5356 57.5024 82.7137 57.6926 82.8265 57.9221C83.4634 59.217 83.242 60.0683 83.1308 61.6693C82.3975 66.2622 81.1166 70.0118 78.2205 73.7526C74.2245 78.9214 68.321 82.2709 61.8327 83.0525C55.335 83.8614 48.7817 82.0551 43.6157 78.0312C39.2563 74.5834 32.0511 63.3705 35.1316 57.4675Z" fill="#1C1A17"/>
</svg>
