<svg width="95" height="125" viewBox="0 0 95 125" fill="none" xmlns="http://www.w3.org/2000/svg">
<path d="M44.0546 0.0766965C44.149 0.0573159 44.2472 0.0451986 44.3435 0.0409589C55.196 -0.436636 62.1978 3.23956 67.5346 12.2728C68.0475 13.1411 69.1293 13.501 70.0677 13.1317C74.9157 11.2239 79.7301 10.9415 84.6754 13.3967C88.9756 15.5472 92.1856 19.3895 93.5355 24.0024C94.8529 28.3726 94.3612 33.0898 92.1624 37.0903C89.4481 42.0146 85.7373 44.1817 80.8704 45.6862C80.0491 45.9401 79.4736 46.6955 79.4848 47.555C79.7379 66.9191 82.3902 78.8354 67.1056 93.0794C66.7867 93.3766 66.5672 93.7782 66.5021 94.2092L66.1606 96.4705C66.0084 97.4781 66.6845 98.421 67.6733 98.6674C79.8804 101.709 85.149 110.526 86.2485 122.487C86.3477 123.566 85.4857 124.48 84.402 124.488L65.1646 124.62C57.6776 124.641 53.665 124.462 48.233 119.064L47.8707 118.587C47.729 118.4 47.5161 118.281 47.283 118.257C47.0461 118.234 46.8126 118.31 46.6329 118.466C44.7513 120.103 39.8795 123.88 38.1808 124.063C29.9056 124.954 18.473 124.581 9.83041 124.468C8.78622 124.454 7.94146 123.598 7.98183 122.555C8.53903 108.154 15.414 103.11 27.8889 98.003C28.3815 97.8013 28.8063 97.4039 28.8291 96.8721C28.98 93.3456 22.8377 88.2602 20.6044 85.2164C13.8099 75.9625 15.2419 59.587 15.4295 47.788C15.4435 46.9057 14.8379 46.1447 13.983 45.9258C13.1098 45.7022 12.2315 45.4524 11.4195 45.1492C6.8364 43.4728 3.16247 39.9645 1.27448 35.4667C-0.460428 31.1735 -0.423327 26.3663 1.38116 22.1014C3.15782 17.875 6.56739 14.5439 10.8304 12.8628C15.7148 10.9413 19.6869 11.4358 24.1046 13.1641C25.0279 13.5253 26.0849 13.166 26.5917 12.3138C27.0215 11.5911 27.4725 10.8811 27.9429 10.1848C32.0525 4.0762 37.1458 1.49408 44.0546 0.0766965Z" fill="#F0E8DE"/>
<path d="M19.6619 57.1776C19.6835 56.1385 20.5306 55.3027 21.5699 55.3033L73.3848 55.3345C74.4277 55.3351 75.2751 56.18 75.2892 57.2227C75.4572 69.6649 76.0009 77.3923 66.923 87.4574C61.0689 92.639 55.3214 95.4798 47.3102 95.4519C39.8324 95.4408 32.6841 92.3936 27.4979 87.0088C18.8002 78.0183 19.4268 68.4604 19.6619 57.1776Z" fill="#1C1A17"/>
<path d="M27.126 65.6779C27.484 64.9759 28.3388 64.7485 29.0777 65.0225C29.2875 65.1003 29.4853 65.2127 29.6366 65.3776C30.5827 66.4081 30.7603 67.9061 31.0095 69.3981C34.034 87.4982 57.5109 89.8701 64.1815 73.0419C65.1053 70.7159 64.6552 66.4135 67.5047 65.279C67.9319 65.109 68.408 65.2379 68.7752 65.5145C68.9876 65.6745 69.1607 65.8835 69.2653 66.128C69.8326 67.4551 69.6812 67.9594 69.5532 69.5781C67.8786 79.1479 61.7693 86.7152 51.8748 88.3133C46.067 89.3069 40.1062 87.9111 35.3421 84.4431C30.5888 80.9876 24.0399 71.7292 27.126 65.6779Z" fill="#F0E8DE"/>
<path d="M28.7185 102.573C28.8669 102.533 29.0229 102.511 29.1766 102.509L30.1411 102.494C30.3988 102.49 30.6569 102.534 30.8854 102.653C31.7238 103.089 32.4651 103.799 33.1583 104.56C33.9239 105.4 33.7527 106.739 32.8459 107.424C32.6538 107.569 32.4622 107.715 32.2712 107.863C28.2777 110.983 27.163 114.143 26.5114 118.496C26.3694 119.445 25.5664 120.162 24.6069 120.162L18.1089 120.164L14.6142 120.129C13.3694 120.116 12.4699 118.926 12.8478 117.74C15.5025 109.407 19.3489 105.094 28.7185 102.573Z" fill="#1C1A17"/>
<path d="M63.2437 103.193C63.6409 102.688 64.267 102.41 64.9026 102.503C67.4035 102.869 69.8075 103.752 71.956 105.099C75.0882 107.024 83.2385 115.105 81.4753 119.329C81.2736 119.813 80.7614 120.058 80.2394 120.101L79.573 120.155L69.7606 120.167C68.8283 120.168 68.0366 119.489 67.8671 118.572C66.9166 113.429 65.7511 111.041 62.0271 107.928C61.1283 107.177 61.0462 105.811 61.8188 104.93C62.3055 104.376 62.7483 103.822 63.2437 103.193Z" fill="#1C1A17"/>
<path d="M37.4622 109.697C37.8893 109.441 38.3986 109.408 38.792 109.714C39.7098 110.427 41.2099 111.915 42.5665 113.094C43.3484 113.773 43.5816 114.958 42.9535 115.782C41.3413 117.895 39.9662 118.74 37.071 119.887C36.9035 119.953 36.7258 119.995 36.5465 120.012C35.0399 120.161 33.5983 120.41 32.2276 119.954C31.9336 119.856 31.6828 119.658 31.5185 119.395C29.1901 115.675 34.2341 111.632 37.4622 109.697Z" fill="#1C1A17"/>
<path d="M55.015 110.581C55.5831 109.836 56.5929 109.551 57.3958 110.034C60.5464 111.927 64.1476 115.313 63.1078 118.873C62.9954 119.259 62.7131 119.572 62.354 119.751C61.0037 120.423 60.406 120.16 58.4993 120.109C58.3423 120.104 58.1833 120.082 58.0319 120.04C54.6614 119.106 53.4446 118.231 51.6383 116.259C50.8275 115.373 51.085 113.981 52.0908 113.325C53.2967 112.539 54.0518 111.843 55.015 110.581Z" fill="#1C1A17"/>
<path d="M45.3991 100.875C47.0413 100.138 48.9571 100.358 50.3905 101.449C51.8192 102.539 52.5429 104.326 52.2692 106.104C51.9955 107.883 50.7709 109.371 49.0777 109.98C46.5913 110.874 43.8452 109.645 42.8571 107.196C41.869 104.748 42.9916 101.956 45.3991 100.875Z" fill="#1C1A17"/>
<path d="M60.4102 97.1034C60.6784 97.0096 60.9765 97.0993 61.1485 97.3255C61.2735 97.4899 61.3155 97.7033 61.2502 97.8993C60.709 99.521 59.4381 101.62 57.8869 102.608C57.1488 103.077 56.2936 102.565 55.8994 101.784C55.7994 101.586 55.6973 101.393 55.5925 101.202C55.0144 100.15 55.4755 98.8297 56.6086 98.4333L60.4102 97.1034Z" fill="#1C1A17"/>
<path d="M35.2207 100.443C34.3355 99.0951 35.8374 97.3429 37.3631 97.8657C38.2883 98.1827 39.1053 98.5997 39.5909 99.2345C39.921 99.6661 39.8028 100.255 39.508 100.711L38.8751 101.691C38.8268 101.766 38.7849 101.844 38.7498 101.926L38.5951 102.287C38.4706 102.577 38.2028 102.78 37.8899 102.822C37.6795 102.85 37.4644 102.804 37.2919 102.68C36.466 102.088 35.7894 101.309 35.2207 100.443Z" fill="#1C1A17"/>
</svg>
