<svg width="105" height="117" viewBox="0 0 105 117" fill="none" xmlns="http://www.w3.org/2000/svg">
<path d="M42.0038 0.207992C42.12 0.18679 42.2335 0.175003 42.3517 0.174231C46.9912 0.143937 57.7787 -0.387264 62.3438 0.56925C62.8162 0.668226 63.202 0.984117 63.4607 1.39154C63.7705 1.87928 63.7601 1.85382 63.6879 2.44211C63.6289 2.92281 63.4197 3.38777 63.0144 3.65285C61.1873 4.84781 58.7367 4.70168 56.2556 4.54289C55.1894 4.47466 54.3055 5.32075 54.3017 6.38905L54.2872 10.4769C54.2837 11.4844 55.0685 12.3162 56.0726 12.3989C64.5401 13.096 70.3315 15.0636 77.8071 19.0309C78.6957 19.5025 79.8018 19.2172 80.3362 18.3648L84.1442 12.292C84.2694 12.0923 84.2066 11.8308 84.0006 11.7163L83.3934 11.3455C82.1971 10.6328 81.4245 10.3773 80.8428 9.30503C80.7061 9.05305 80.6647 8.76215 80.6663 8.47549C80.6705 7.70767 80.5733 7.75137 80.933 7.41622C81.2259 7.14335 81.5928 6.95235 81.993 6.94681C85.689 6.89569 92.5856 10.4574 94.3184 13.7381C94.5132 14.1068 94.4968 14.5397 94.3774 14.9393C94.2053 15.5157 94.2412 15.4364 93.6235 15.7833C93.2993 15.9652 92.9319 16.0768 92.5641 16.0235C91.5421 15.8753 90.6135 15.4281 89.6905 14.9089C88.805 14.4107 87.6955 14.6825 87.1612 15.5468L83.8882 20.8416C83.3565 21.7018 83.5949 22.824 84.4008 23.4348C93.7868 30.5483 100.659 42.0384 103.106 53.4361C106.045 67.0677 103.384 81.3065 95.7272 92.9589C87.5928 105.33 75.9728 112.611 61.6366 115.624C55.8197 116.468 51.5787 116.797 45.6088 116.083C31.9401 114.387 19.509 107.327 11.0501 96.4584C2.42892 85.4224 -1.39033 71.3783 0.454412 57.4964C2.39007 42.7069 9.59162 31.7928 20.849 22.7016C21.6057 22.0906 21.8035 21.0119 21.2912 20.1852L18.4105 15.5365C17.8559 14.6416 16.696 14.3953 15.808 14.9609C14.9494 15.5079 14.108 15.9432 13.0801 16.0338C12.7531 16.0626 12.432 15.9585 12.1443 15.8006C11.4397 15.414 11.457 15.508 11.2636 14.9917C11.1043 14.5667 11.0749 14.0904 11.3047 13.699C13.1527 10.5501 20.982 5.92651 24.315 7.28027C24.7721 7.46592 24.9842 7.95895 25.0027 8.45195C25.0141 8.7538 24.9552 9.05795 24.7912 9.31161C24.3223 10.0367 23.6872 10.534 22.9688 10.9861C22.0748 11.5489 21.7716 12.6947 22.3288 13.5923L24.9321 17.7852C25.4571 18.6307 26.5459 18.9249 27.4334 18.4745C34.9833 14.6426 39.9166 13.1924 48.3512 12.4082C49.3373 12.3165 50.1005 11.495 50.1011 10.5047L50.1036 6.41861C50.1042 5.35142 49.2257 4.49958 48.1595 4.54384C45.5933 4.65036 42.8125 4.73772 40.5961 3.95524C40.2629 3.8376 39.988 3.60186 39.7766 3.3187C39.2899 2.66668 39.3532 2.83354 39.5313 1.94067C39.6068 1.56272 39.7776 1.20678 40.0371 0.921761C40.6839 0.211105 40.4137 0.497944 42.0038 0.207992Z" fill="#F0E8DE"/>
<path d="M46.457 16.8845C72.7051 13.7558 96.5152 32.5091 99.6206 58.7619C102.721 85.01 83.9404 108.801 57.6876 111.875C31.472 114.948 7.72678 96.1989 4.62596 69.9879C1.52977 43.7768 20.2506 20.0085 46.457 16.8845Z" fill="#1C1A17"/>
<path d="M54.3131 23.8933C54.2956 23.332 54.7769 22.886 55.3355 22.9439C76.9628 25.184 90.1028 39.3163 93.5343 60.3256C93.6291 60.9058 93.1714 61.4243 92.5842 61.3963C89.6752 61.2578 85.2618 61.0002 83.4404 63.0282C83.2419 63.2493 83.2109 63.566 83.3104 63.846L83.3669 64.005C83.4382 64.2056 83.5746 64.3778 83.7576 64.4866C86.7695 66.2769 89.2458 65.9542 92.7523 65.8031C93.3242 65.7785 93.7795 66.275 93.7116 66.8433C91.1475 88.2998 78.8587 101.55 57.421 105.671C57.3677 105.681 57.3128 105.687 57.2584 105.688L55.7379 105.714C55.5496 105.717 55.3606 105.669 55.2168 105.547C53.109 103.764 55.0316 98.6623 53.3015 96.0259C53.1387 95.7778 52.8409 95.6643 52.5451 95.688C51.6214 95.7622 51.8377 95.7966 50.7799 96.4932C50.6338 96.5894 50.5113 96.7191 50.4558 96.8849C49.9479 98.4051 50.0215 102.547 50.0535 104.908C50.061 105.462 49.5866 105.896 49.036 105.843C27.092 103.707 12.953 88.3959 10.6164 66.8157C10.5558 66.2564 11.0014 65.7717 11.564 65.7771C12.3056 65.7842 13.0465 65.7885 13.7894 65.7885C16.2131 65.8103 17.5217 65.8608 19.3076 64.282C19.5295 64.0858 19.6324 63.7896 19.5977 63.4955L19.5913 63.4416C19.5623 63.196 19.4394 62.969 19.2411 62.8211C16.8336 61.0251 14.67 61.2579 11.6689 61.362C11.0911 61.3821 10.6395 60.8727 10.7246 60.3009C13.6742 40.4658 25.8645 26.8856 46.0352 23.253C47.5931 23.0458 47.8843 23.0201 49.1833 23.1097C49.5007 23.1316 49.795 23.3105 49.9118 23.6064C50.8451 25.9697 48.704 27.9074 51.2715 29.8016C51.4455 29.93 51.6648 29.9797 51.8804 29.9625C53.1314 29.8627 52.6691 30.0316 53.7308 29.0686C53.844 28.9659 53.9357 28.8387 53.9829 28.6933C54.4174 27.3552 54.3628 25.4936 54.3131 23.8933Z" fill="#F0E8DE"/>
<path d="M50.2012 34.4895C50.2595 33.4883 51.1375 32.7475 52.1369 32.83C52.5298 32.8624 52.9123 33.0111 53.1495 33.3259C56.1636 37.3252 53.4052 51.3939 54.0771 56.778C55.1782 65.583 72.1119 58.7092 77.7432 62.1107C78.0291 62.2834 78.1813 62.6018 78.1931 62.9355C78.2021 63.1923 78.1242 63.4469 77.968 63.6509C76.4 65.6969 75.7445 65.5703 72.9926 65.5614L59.0521 65.5415C57.5984 65.5394 56.2415 66.1658 54.9915 66.908C49.8485 69.9616 45.1758 65.6659 48.4834 60.6777C49.3554 59.3627 50.0958 57.9095 50.0829 56.3316C50.0273 49.5558 49.8274 40.9112 50.2012 34.4895Z" fill="#1C1A17"/>
</svg>
