<svg width="123" height="103" viewBox="0 0 123 103" fill="none" xmlns="http://www.w3.org/2000/svg">
<path d="M61.1068 12.389C68.1595 4.78036 75.9727 0.356197 86.5776 0.0162716C95.9054 -0.26986 104.953 3.22773 111.663 9.71321C118.325 16.0619 122.125 24.8453 122.191 34.0506C122.4 50.9263 113.04 58.0634 102.133 68.6553C97.0128 73.7009 91.9399 78.7928 86.9152 83.9311C80.7548 89.9876 72.591 100.366 64.3494 101.994C59.7087 102.884 54.9047 101.846 51.0514 99.1095C46.2248 95.6499 37.7897 86.6765 33.4565 82.1596C21.9356 70.1486 3.17434 56.7556 0.396039 39.5274C-0.984531 30.5957 1.2767 21.4784 6.67331 14.2301C12.7243 5.9411 20.6334 1.76739 30.604 0.217547C43.7804 -0.814751 52.0077 3.10902 61.1068 12.389Z" fill="#F0E8DE"/>
<path d="M33.3854 10.8863C35.8321 10.7747 36.0291 13.9723 33.7697 14.9176C30.4632 16.3011 25.1601 17.0119 22.8343 19.0761C3.73633 36.0399 23.765 51.5893 36.2964 63.5678C38.5975 65.7667 41.5891 67.7726 42.7094 70.4183C43.4387 72.1406 41.4948 74.134 40.0323 72.968C36.6915 70.3478 33.9123 67.5282 30.8437 64.5556C18.0893 52.2014 2.24723 38.2937 16.0386 19.7949C20.3055 14.0723 26.4075 11.6979 33.3854 10.8863Z" fill="#1C1A17"/>
</svg>
