<svg width="130" height="122" viewBox="0 0 130 122" fill="none" xmlns="http://www.w3.org/2000/svg">
<path d="M58.561 0.316407C60.3433 0.126104 61.8565 0.0611201 63.6435 0.0239878C77.3499 -0.398392 90.6386 4.77232 100.46 14.3385C110.986 24.532 115.533 36.8213 116.071 51.0844C116.103 51.9291 116.675 52.6558 117.479 52.9161C123.815 54.9671 128.561 59.0211 129.498 66.1519C130.087 70.4732 128.82 74.8501 126.007 78.1874C123.046 81.7113 119.73 83.1378 115.507 83.7459C114.748 83.8552 114.108 84.3839 113.873 85.1142C107.461 105.059 92.5498 117.128 71.9564 120.75C45.7089 123.459 24.4188 109.896 15.9537 85.1301C15.705 84.4026 15.0527 83.8842 14.2881 83.8036C12.6132 83.627 11.3073 83.3613 9.5334 82.5922C5.49898 80.8702 2.36364 77.5469 0.88067 73.4205C-0.571202 69.2803 -0.216127 64.7177 1.85864 60.8513C4.36719 56.209 7.73113 54.3354 12.2172 52.8962C12.9943 52.6469 13.5433 51.9425 13.5907 51.1278C15.1552 24.2388 31.022 4.31484 58.561 0.316407Z" fill="#F0E8DE"/>
<path d="M84.0332 39.4367C85.6392 37.8617 87.9105 37.7504 89.4593 39.3817C92.4116 42.491 97.036 47.3951 100.298 49.5305C108.3 54.7754 114.9 55.4716 121.95 60.4938C123.784 61.798 125.645 65.321 125.659 67.7531C125.678 71.0765 123.821 74.437 121.412 76.702C119.331 78.6521 117.191 79.2584 114.839 79.4186C112.565 79.5735 110.588 81.0499 109.936 83.2343C109.399 85.0324 108.763 86.8006 108.03 88.5286C103.097 100.067 93.7345 109.137 82.0518 113.7C69.5289 118.569 56.9968 117.668 44.8281 112.381C43.2091 111.583 41.6227 110.72 40.0724 109.796C29.5093 103.345 23.009 93.7827 19.6554 82.2517C19.1741 80.5969 17.6379 79.4603 15.9146 79.4684C5.5742 79.4544 -0.295012 66.9548 8.20131 59.8068C10.6778 57.7259 13.2407 57.1416 15.7459 55.6221C17.2473 54.7114 19.0549 54.2653 20.7371 54.7692C44.4454 61.8718 66.4485 56.682 84.0332 39.4367Z" fill="#1C1A17"/>
<path d="M49.9158 92.2279C49.9905 92.2419 50.0652 92.2604 50.1409 92.2697C52.9081 92.6689 56.1567 96.6931 58.4125 98.494C69.645 107.461 77.907 92.8731 81.7966 92.46C83.4722 93.5229 83.2865 94.5209 82.9013 96.1268C77.1179 103.818 68.9256 106.872 59.6193 103.901C54.7829 102.356 47.7129 98.1598 49.9158 92.2279Z" fill="#F0E8DE"/>
<path d="M47.2371 65.8269C50.6268 65.1167 53.952 67.2797 54.6761 70.668C55.4002 74.0517 53.2479 77.3889 49.8638 78.1269C46.4606 78.865 43.1039 76.6973 42.3765 73.2951C41.6492 69.8882 43.8284 66.5417 47.2371 65.8269Z" fill="#F0E8DE"/>
<path d="M81.8754 65.827C85.1476 65.1354 88.3828 67.1219 89.2508 70.3478C90.1141 73.5783 88.3039 76.9156 85.1291 77.9506C82.9151 78.6747 80.4876 78.1131 78.8166 76.4978C77.141 74.8826 76.4959 72.4783 77.141 70.2457C77.7816 68.0085 79.601 66.3097 81.8754 65.827Z" fill="#F0E8DE"/>
</svg>
