<svg width="150" height="101" viewBox="0 0 150 101" fill="none" xmlns="http://www.w3.org/2000/svg">
<path d="M74.3802 0C75.7402 0.128947 77.4156 0.348352 78.6837 0.846978C81.3392 1.87299 83.4822 3.90645 84.6459 6.50442C88.9564 16.3188 78.8368 18.9473 77.0793 23.2059C77.1021 23.7179 77.1248 24.2296 77.147 24.7412C80.4927 25.8136 88.1229 26.731 91.3637 27.6184C102.387 30.5976 112.419 36.4582 120.429 44.5972C135.456 59.9141 138.804 75.8233 138.689 96.2901C141.993 96.2085 146.725 95.6255 149.41 97.2865C149.911 98.409 149.927 97.8533 149.516 98.9846C148.684 99.813 147.637 100.679 146.394 100.661C139.452 100.56 132.493 100.57 125.55 100.567L25.7653 100.577C20.5239 100.581 6.33604 100.939 1.64802 100.396C0.238417 99.4391 0.826097 100.044 0 98.3598L0.39612 97.3713C2.98944 95.7201 7.96783 96.2289 11.1609 96.2781C11.0895 89.6948 11.0769 83.8857 12.2927 77.3836C16.7979 53.5859 34.3899 34.3918 57.7062 27.8354C60.8867 26.9425 71.5852 25.4536 72.6478 24.7263C73.2387 19.2748 65.3187 18.8601 64.5515 13.6916C63.3789 5.78732 67.3355 1.54458 74.3802 0Z" fill="#F0E8DE"/>
<path d="M69.089 37.5951C71.2538 37.3861 74.3324 37.0065 76.4327 38.1718C77.2868 38.6457 77.4543 39.7648 76.7324 40.4228C76.1998 40.9081 75.5491 41.2778 75.0568 41.3086C50.7447 42.8272 31.3571 57.5156 27.5008 84.5115C27.4199 86.439 27.448 87.6776 25.9671 88.7522C25.7 88.946 25.3493 88.9688 25.0419 88.8489C24.8894 88.7893 24.7511 88.6971 24.6468 88.5708C19.4937 82.3371 29.4496 62.9786 33.6341 57.6807C42.9814 45.8477 54.319 39.6425 69.089 37.5951Z" fill="#1C1A17"/>
<path d="M86.4846 78.4162C86.737 79.249 87.8084 79.2937 88.1001 78.4739C89.2906 75.1276 90.7241 70.516 92.4989 68.7694C92.6945 68.5769 92.9765 68.5182 93.2454 68.5729L93.3975 68.6039C93.6091 68.6469 93.8011 68.7589 93.9301 68.932C95.4474 70.969 96.9126 75.266 97.9869 78.5505C98.2596 79.3842 99.3571 79.4083 99.6313 78.5752C100.797 75.0332 102.114 70.2275 103.73 68.3001C103.868 68.1364 104.068 68.0437 104.279 68.013C105.019 67.9057 104.816 67.8816 105.415 68.3127C105.606 68.4505 105.755 68.6469 105.789 68.8801C106.012 70.4101 105.201 71.9504 104.616 73.499C103.659 76.3143 101.576 84.4547 98.6848 85.2468C98.4652 85.3069 98.2358 85.2343 98.0701 85.0782C96.3816 83.4864 94.9038 79.1382 93.8559 75.8352C93.5799 74.965 92.3972 74.9627 92.117 75.8316C91.0427 79.1628 89.5867 83.482 88.1363 85.5176C87.9855 85.7291 87.7446 85.8504 87.4856 85.87L87.3108 85.8832C87.0784 85.9007 86.8465 85.8375 86.6843 85.6703C84.4519 83.3692 80.5854 72.7733 80.2109 68.6973C80.1621 68.1663 80.6366 67.7951 81.1643 67.8711L81.8183 67.9654C81.9808 67.9888 82.1372 68.0515 82.2546 68.1664C83.7813 69.6601 85.4239 74.916 86.4846 78.4162Z" fill="#1C1A17"/>
<path d="M46.4307 68.6672C46.4897 68.1274 47.0014 67.7658 47.4862 68.0103C50.2342 69.396 53.8194 74.371 56.3579 77.9131C56.8936 78.6606 58.0084 78.2771 57.9898 77.3578C57.9294 74.3759 58.0039 70.4079 59.0612 68.66C59.2976 68.2693 59.8221 68.2818 60.0493 68.678C61.7913 71.7162 61.4417 81.4039 60.9056 85.3927C60.8386 85.8913 60.3733 86.2185 59.9233 85.9935C57.3179 84.6913 53.4337 79.3388 50.9063 75.8552C50.3737 75.1211 49.2846 75.494 49.2987 76.401C49.3452 79.4024 49.2887 83.1961 48.2902 85.2435C48.1021 85.6292 47.6026 85.6603 47.2991 85.3569C47.2195 85.2774 47.16 85.1826 47.1264 85.0752C45.8418 80.9715 45.9144 73.3936 46.4307 68.6672Z" fill="#1C1A17"/>
<path d="M73.1797 4.72327C75.3449 4.09616 77.6799 4.68059 79.2936 6.25393C80.9077 7.82727 81.552 10.1465 80.9805 12.3265C80.4095 14.507 78.7105 16.2121 76.5328 16.7914C73.2154 17.6741 69.8062 15.7227 68.8873 12.4156C67.9689 9.10839 69.8832 5.67785 73.1797 4.72327Z" fill="#1C1A17"/>
<path d="M65.7005 68.9084C65.7574 68.4761 66.1294 68.1725 66.5653 68.1621C68.5015 68.1158 70.4379 68.0849 72.3744 68.0697C74.1132 68.0668 75.7939 67.9276 77.1112 68.8294C77.4454 69.0581 77.5279 69.5226 77.2611 69.8272C75.6122 71.7101 71.7535 69.7859 69.1229 70.8591C68.8375 70.9756 68.6656 71.2584 68.6363 71.5652C68.5033 72.9624 68.4355 73.4845 68.717 74.818C68.7794 75.1135 68.9847 75.3638 69.2749 75.4475C71.6954 76.1453 74.6035 74.5974 76.5578 76.0793C76.7916 76.2566 76.8832 76.5578 76.8433 76.8485L76.8064 77.117C76.7624 77.437 76.5594 77.7171 76.2469 77.7988C74.6714 78.2105 71.4518 78.1506 69.4753 78.1238C68.9608 78.1169 68.5407 78.5256 68.5229 79.0398C68.4774 80.3575 68.4539 81.1877 68.7415 82.5586C68.8041 82.8571 69.0137 83.108 69.3069 83.1919C71.9153 83.9381 75.3995 82.491 77.1974 83.8721C77.5013 84.1055 77.5173 84.5362 77.3253 84.8678L77.2794 84.9472C77.2018 85.0813 77.0953 85.1971 76.9542 85.2613C75.1388 86.0872 69.3769 85.8022 66.4443 85.7035C65.9313 85.6863 65.5198 85.2749 65.5106 84.7617C65.4403 80.8283 65.252 72.316 65.7005 68.9084Z" fill="#1C1A17"/>
</svg>
