<svg width="92" height="127" viewBox="0 0 92 127" fill="none" xmlns="http://www.w3.org/2000/svg">
<path d="M43.0194 1.02041C44.0587 0.0285873 45.5913 -0.354701 46.82 0.389811C50.7137 2.7493 52.7616 8.41383 57.709 10.1077C61.7377 11.4909 68.7342 7.75719 72.5734 8.61551C73.1877 8.75284 73.6947 9.17127 74.0197 9.71037C75.4667 12.1109 75.4635 15.5076 75.5761 18.0623C76.0272 28.2816 83.5654 26.648 89.9012 31.4328C93.8868 34.4447 85.6153 41.2577 85.135 46.5065C84.5883 52.4887 90.3091 55.7559 91.0856 60.9166C91.7678 65.4508 80.9707 66.3279 77.7782 70.463C74.4452 74.7777 76.8342 81.1261 74.5048 85.104C74.143 85.7219 73.5348 86.1621 72.8359 86.3177C67.7167 87.4574 61.0108 82.2795 56.0127 86.1957C52.8077 88.7078 50.9343 91.7004 48.1091 94.2512C46.9327 95.3134 45.1952 95.5253 43.9531 94.5408C40.3719 91.7025 37.7958 86.258 33.2137 85.0726C29.6824 84.1583 21.9321 87.1842 19.0074 86.7711C14.4565 86.1261 16.7765 75.4798 14.2913 71.5675C11.6013 67.3293 4.09063 66.6911 1.04107 63.4051C0.517136 62.8405 0.300359 62.0608 0.379387 61.2947C0.697229 58.2133 2.72427 56.1701 4.36386 53.3519C9.35517 44.7755 2.40911 41.9863 0.130883 34.7139C-1.33426 30.0359 9.91905 28.922 13.0359 25.2371C16.9532 20.6088 14.2112 14.4415 16.8606 9.99313C17.1533 9.50157 17.5877 9.09377 18.1319 8.91697C22.6315 7.455 31.2647 13.4039 36.2196 8.31171C38.333 6.14333 40.7011 3.23273 43.0194 1.02041Z" fill="#F0E8DE"/>
<path d="M41.2492 18.9952C57.0979 16.5773 71.8932 27.502 74.2508 43.36C76.6079 59.2181 65.6303 73.9715 49.7639 76.2688C33.9806 78.5568 19.3204 67.646 16.9753 51.8715C14.6302 36.097 25.4835 21.3992 41.2492 18.9952Z" fill="#1C1A17"/>
<path d="M41.108 23.1581C54.6873 20.6566 67.706 29.6925 70.1109 43.2904C72.5154 56.8883 63.3858 69.8411 49.7716 72.1477C36.2949 74.431 23.5003 65.4137 21.12 51.955C18.7392 38.4917 27.6651 25.6317 41.108 23.1581Z" fill="#F0E8DE"/>
<path d="M28.9704 88.9895C29.2035 88.8915 29.454 88.8398 29.7068 88.8447C29.9309 88.849 30.1549 88.857 30.379 88.8688C37.1413 89.2169 38.6449 99.2923 45.6852 99.5337C51.8393 99.7389 56.1879 88.8516 61.2269 88.2992C61.6221 88.2559 62.0128 88.4079 62.3112 88.6706C62.4862 88.8247 62.6443 88.9923 62.8065 89.2401C64.7983 92.2979 64.1778 119.646 63.8134 125.528C63.7971 125.79 63.6053 125.999 63.3473 126.05C63.1921 126.081 63.0243 126.043 62.8941 125.953C44.5757 113.284 47.0115 114.163 30.2311 124.912C28.9705 125.72 27.2965 124.823 27.2791 123.326C27.1776 114.609 26.8156 95.0688 27.4842 90.3521C27.5586 89.8269 27.9343 89.4249 28.4233 89.2194L28.9704 88.9895Z" fill="#F0E8DE"/>
</svg>
