<svg width="96" height="128" viewBox="0 0 96 128" fill="none" xmlns="http://www.w3.org/2000/svg">
<path d="M55.5404 47.3229C55.6508 47.2706 55.7728 47.238 55.8948 47.2319C60.3648 47.0066 61.0615 51.3087 64.4184 53.6012C70.6291 57.8448 74.7778 50.3433 79.9095 49.2244C80.0142 49.2016 80.1175 49.1969 80.2227 49.2179C83.3282 49.838 91.145 57.1006 94.5684 60.0439C94.8471 60.2835 94.9724 60.6545 94.8957 61.0139C88.5419 90.7784 68.9638 111.929 40.5903 122.727C31.9819 125.657 23.6713 127.517 14.5414 127.844C10.1762 128.005 -0.431712 128.474 0.0136004 121.785C0.403737 115.93 8.28656 113.323 12.5927 109.822C30.8102 95.0136 40.3742 76.8896 43.0708 53.7525C43.1109 53.4081 43.325 53.1056 43.6384 52.9572L55.5404 47.3229Z" fill="#F0E8DE"/>
<path d="M80.1701 63.7427C80.9765 61.3805 85.2652 58.7726 85.0874 61.2623C84.5405 68.7818 79.5894 78.5377 75.4536 84.6363C63.52 102.258 45.6245 113.347 24.875 117.468C22.9744 117.766 22.6547 117.549 21.6994 116.417C21.4696 116.145 21.3638 115.788 21.4052 115.434C21.4352 115.178 21.5354 114.934 21.7271 114.762C24.4128 112.349 34.2824 110.6 37.9243 109.104C60.1923 99.9614 72.8096 85.3047 80.1701 63.7427Z" fill="#1C1A17"/>
<path d="M67.355 0.404284C67.634 0.0449443 68.1162 -0.106632 68.5308 0.0806402C76.4444 3.65529 78.4608 14.3049 78.691 22.1832C78.7021 22.5627 78.9283 22.9059 79.2688 23.0739C92.3988 29.5531 95.5384 40.0565 95.6715 53.349C95.68 54.1951 94.6961 54.6469 94.0562 54.0932C90.7418 51.2248 86.838 47.7353 83.7397 45.4273C79.853 42.5318 72.6167 48.6207 69.1157 50.5689L69.0652 50.5969C68.8119 50.7373 68.509 50.7646 68.2441 50.6477C64.6886 49.0776 61.6767 44.337 59.0083 42.6881C57.4773 41.7409 49.4642 45.4122 45.6429 47.2118C44.9211 47.5518 44.1252 46.9505 44.2638 46.1647C47.3704 28.5569 54.6108 20.9988 73.2349 21.4083C73.8145 21.421 74.3009 20.9461 74.272 20.3671C73.7807 10.5327 71.1466 10.224 66.5951 3.1007C66.4888 2.93439 66.432 2.73557 66.4394 2.53834C66.4844 1.34988 66.6138 1.35899 67.355 0.404284Z" fill="#F0E8DE"/>
</svg>
