<svg width="126" height="114" viewBox="0 0 126 114" fill="none" xmlns="http://www.w3.org/2000/svg">
<path d="M77.5416 0.117058C82.9543 -0.214104 91.9291 0.202401 97.8937 0.803037C105.509 1.93474 119.391 2.89528 125.082 8.3395C127.856 10.9958 119.401 23.1143 118.06 26.4212C109.118 48.4709 99.0161 72.7143 76.8042 84.4627C60.2229 93.2334 40.7335 94.968 22.8025 89.6388C20.3768 88.7529 17.8676 87.7418 15.4465 86.8049C10.9892 95.0468 7.57098 103.001 4.18052 111.73C3.69351 112.996 3.34564 113.2 2.25569 113.817C0.632344 113.571 1.37907 113.878 0.0386514 112.658C-0.712724 108.534 9.70911 88.4329 12.3065 83.7159C10.7712 77.3941 9.5097 71.8748 9.08763 65.3258C6.30939 22.0939 38.5814 2.31785 77.5416 0.117058Z" fill="#F0E8DE"/>
<path d="M73.1215 9.37108C76.2387 8.99623 80.2055 8.76518 83.1101 10.1289C83.4275 10.2779 83.6362 10.584 83.692 10.9301C83.7395 11.2245 83.6745 11.5298 83.473 11.7496C82.8619 12.4162 81.8203 13.1606 81.0388 13.1841C57.8204 13.9076 35.2699 20.0995 25.1077 43.0767C24.5498 44.7764 24.2256 46.4149 23.164 47.5114C22.2291 48.4771 20.5752 48.0186 20.3139 46.7C19.3443 41.8065 25.7139 32.4305 28.1689 29.5288C39.5508 16.0736 56.1321 11.0139 73.1215 9.37108Z" fill="#1C1A17"/>
</svg>
